<?xml version="1.0" standalone="no"?>
<!DOCTYPE svg PUBLIC "-//W3C//DTD SVG 20010904//EN"
 "http://www.w3.org/TR/2001/REC-SVG-20010904/DTD/svg10.dtd">
<svg version="1.0" xmlns="http://www.w3.org/2000/svg"
 width="50.000000pt" height="50.000000pt" viewBox="0 0 50.000000 50.000000"
 preserveAspectRatio="xMidYMid meet">

<g transform="translate(0.000000,50.000000) scale(0.100000,-0.100000)"
fill="#000000" stroke="none">
<path d="M46 413 c-10 -66 -10 -69 -8 -230 l2 -143 210 0 210 0 2 143 c2 161
2 164 -8 230 l-7 47 -197 0 -197 0 -7 -47z m384 17 c0 -6 -67 -10 -180 -10
-113 0 -180 4 -180 10 0 6 67 10 180 10 113 0 180 -4 180 -10z m13 -63 c13
-39 -8 -61 -29 -33 -14 20 -14 20 -29 0 -15 -19 -15 -19 -30 0 -15 20 -15 20
-30 0 -15 -19 -15 -19 -30 0 -15 20 -15 20 -30 0 -15 -19 -15 -19 -30 0 -15
20 -15 20 -30 0 -15 -19 -15 -19 -30 0 -15 20 -15 20 -30 0 -15 -19 -15 -19
-30 0 -15 19 -15 19 -28 1 -8 -10 -19 -15 -25 -11 -15 9 -15 17 -2 51 l10 25
182 -2 181 -3 10 -28z m-15 -66 c9 -1 12 -32 12 -121 0 -113 -1 -120 -20 -120
-19 0 -20 7 -20 105 l0 105 -150 0 -150 0 0 -105 c0 -98 -1 -105 -20 -105 -19
0 -20 7 -20 119 0 104 2 120 17 123 14 3 313 2 351 -1z m-188 -146 l0 -95 -60
0 -60 0 0 95 0 95 60 0 60 0 0 -95z m140 0 l0 -95 -60 0 -60 0 0 95 0 95 60 0
60 0 0 -95z"/>
<path d="M200 160 c0 -5 5 -10 10 -10 6 0 10 5 10 10 0 6 -4 10 -10 10 -5 0
-10 -4 -10 -10z"/>
<path d="M280 160 c0 -5 5 -10 10 -10 6 0 10 5 10 10 0 6 -4 10 -10 10 -5 0
-10 -4 -10 -10z"/>
</g>
</svg>
