<?xml version="1.0" standalone="no"?>
<!DOCTYPE svg PUBLIC "-//W3C//DTD SVG 20010904//EN"
 "http://www.w3.org/TR/2001/REC-SVG-20010904/DTD/svg10.dtd">
<svg version="1.0" xmlns="http://www.w3.org/2000/svg"
 width="50.000000pt" height="50.000000pt" viewBox="0 0 50.000000 50.000000"
 preserveAspectRatio="xMidYMid meet">

<g transform="translate(0.000000,50.000000) scale(0.100000,-0.100000)"
fill="#000000" stroke="none">
<path d="M44 394 l-18 -67 22 -18 c15 -12 22 -28 22 -53 0 -20 -4 -36 -10 -36
-6 0 -10 -35 -10 -85 l0 -85 200 0 200 0 0 85 c0 50 -4 85 -10 85 -5 0 -10 16
-10 36 0 25 7 41 22 53 l22 18 -18 67 -18 66 -188 0 -188 0 -18 -66z m393 -8
c16 -54 6 -79 -22 -56 -12 10 -18 10 -30 0 -12 -10 -18 -10 -30 0 -12 10 -18
10 -31 -1 -14 -11 -18 -10 -30 6 -14 18 -14 18 -29 -1 -15 -19 -15 -19 -30 0
-15 20 -15 20 -30 0 -15 -19 -15 -19 -30 0 -15 19 -15 19 -29 1 -12 -16 -16
-17 -30 -6 -13 11 -19 11 -31 1 -11 -9 -19 -10 -27 -2 -10 10 -8 19 18 100 3
10 43 12 175 10 l172 -3 14 -49z m-27 -123 l0 -43 -160 0 -160 0 0 43 0 42
160 0 160 0 0 -42z m20 -128 l0 -65 -180 0 -180 0 0 65 0 65 180 0 180 0 0
-65z"/>
</g>
</svg>
